# xmcd
#
# Track frame offsets:
#  150
#  905
#  15640
#  31730
#  50578
#  67598
#  89695
#  109943
#  133655
#  162233
#  182710
#  207708
#  208458
#  228313
#  248870
#  268588
#  288090
#  305555
#
# Disc length: 4295 seconds
#
# Revision: 0
# Processed by: cddbd v1.5.1PL2 Copyright (c) Steve Scherf et al.
# Submitted via: Collectorz.com_Music_Collector 6.9
#
DISCID=fb10c512
DTITLE=Various Artist - 013B
DYEAR=1993
DGENRE=Pop
TTITLE0=N/A
TTITLE1=Pearl Jam - Go
TTITLE2=Ric Ocasek - Don't Let Go
TTITLE3=INXS - The Gift
TTITLE4=Urge Overkill - Positive Blending
TTITLE5=Midnight Oil - My Country
TTITLE6=Pat Benatar - Crazy
TTITLE7=Def Leppard - Desert Song
TTITLE8=Big Head Todd and The Monsters - Bittersweet
TTITLE9=Robert Cray - Some Pain, Some Shame
TTITLE10=Altered State - Strong As I Am
TTITLE11=N/A
TTITLE12=U.N.V. - Straight From The Heart
TTITLE13=Toni Braxton - Breathe Again
TTITLE14=Johnny Gill - Long Way From Home
TTITLE15=Jody Watley - Your Love Keeps Working On Me
TTITLE16=Janet Jackson - Again
TTITLE17=LL Cool J - Stand By Your Man
EXTD=
EXTT0=
EXTT1=
EXTT2=
EXTT3=
EXTT4=
EXTT5=
EXTT6=
EXTT7=
EXTT8=
EXTT9=
EXTT10=
EXTT11=
EXTT12=
EXTT13=
EXTT14=
EXTT15=
EXTT16=
EXTT17=
PLAYORDER=
